<svg xmlns="http://www.w3.org/2000/svg" width="15.602" height="15.605" viewBox="0 0 15.602 15.605">
  <g id="bath" transform="translate(-9.477 -9.34)">
    <g id="bathtub" transform="translate(9.577 9.443)">
      <path id="Path_32" data-name="Path 32" d="M14.631,7.187h-.513V6.93a.771.771,0,0,0-.77-.77H9.753a.771.771,0,0,0-.77.77v.257H1.8V2.053a1.539,1.539,0,0,1,3.061-.231A1.542,1.542,0,0,0,3.593,3.336v.257a.257.257,0,0,0,.257.257H6.416a.257.257,0,0,0,.257-.257V3.336a1.541,1.541,0,0,0-1.3-1.519,2.053,2.053,0,0,0-4.093.236V7.187H.769A.769.769,0,0,0,.512,8.68v2.1a3.6,3.6,0,0,0,3.337,3.581v.27a.77.77,0,1,0,1.54,0v-.257H10.01v.257a.77.77,0,1,0,1.54,0v-.27a3.6,3.6,0,0,0,3.337-3.581V8.68a.768.768,0,0,0-.257-1.493ZM6.16,3.336H4.106a1.027,1.027,0,0,1,2.054,0Zm6.931,3.851V6.93a.257.257,0,0,1,.513,0v.257ZM9.5,6.93a.257.257,0,0,1,.257-.257h2.871a.759.759,0,0,0-.047.257V9.754h-2.31a.257.257,0,0,0,0,.513h2.31v.513H9.5Zm-4.621,7.7a.257.257,0,1,1-.513,0v-.257h.513Zm6.161,0a.257.257,0,1,1-.513,0v-.257h.513Zm.257-.77H4.106a3.084,3.084,0,0,1-3.08-3.08V8.727H7.7a.257.257,0,1,0,0-.513H.769a.251.251,0,0,1-.183-.078.247.247,0,0,1-.074-.178A.257.257,0,0,1,.769,7.7H8.983v3.08a.512.512,0,0,0,.257.442v.585a.257.257,0,1,0,.513,0v-.513h.513v.513a.257.257,0,1,0,.513,0v-.513h.513v.513a.257.257,0,1,0,.514,0v-.513h.513v.513a.257.257,0,1,0,.513,0v-.585a.512.512,0,0,0,.257-.442V8.727h1.284v2.054a3.084,3.084,0,0,1-3.08,3.08Zm3.337-5.647h-1.54V7.7h1.54a.251.251,0,0,1,.183.079.247.247,0,0,1,.074.178A.257.257,0,0,1,14.631,8.214Zm0,0" transform="translate(0.001 0.001)" stroke="#000" stroke-width="0.2"/>
      <path id="Path_33" data-name="Path 33" d="M162.646,145.323a.257.257,0,0,0-.513,0v.257a.257.257,0,0,0,.513,0Zm0,0" transform="translate(-157.255 -140.703)" stroke="#000" stroke-width="0.2"/>
      <path id="Path_34" data-name="Path 34" d="M162.39,187.73a.257.257,0,0,0-.257.257v.257a.257.257,0,0,0,.513,0v-.257A.257.257,0,0,0,162.39,187.73Zm0,0" transform="translate(-157.255 -182.083)" stroke="#000" stroke-width="0.2"/>
      <path id="Path_35" data-name="Path 35" d="M132.52,135.38l-.18.183a.257.257,0,1,0,.367.359l.18-.183a.257.257,0,0,0-.367-.359Zm0,0" transform="translate(-128.288 -131.233)" stroke="#000" stroke-width="0.2"/>
      <path id="Path_36" data-name="Path 36" d="M102.653,165.852l-.18.183a.257.257,0,0,0,.367.359l.18-.183a.257.257,0,1,0-.367-.359Zm0,0" transform="translate(-99.319 -160.788)" stroke="#000" stroke-width="0.2"/>
      <path id="Path_37" data-name="Path 37" d="M186.106,135.378a.257.257,0,0,0,0,.363l.18.183a.257.257,0,1,0,.367-.359l-.18-.183a.257.257,0,0,0-.363,0Zm0,0" transform="translate(-180.433 -131.234)" stroke="#000" stroke-width="0.2"/>
      <path id="Path_38" data-name="Path 38" d="M215.964,166.215l.18.183a.257.257,0,1,0,.367-.359l-.18-.183a.257.257,0,0,0-.367.359Zm0,0" transform="translate(-209.396 -160.791)" stroke="#000" stroke-width="0.2"/>
    </g>
  </g>
</svg>
