<svg xmlns="http://www.w3.org/2000/svg" width="107" height="107" viewBox="0 0 107 107">
  <g id="bed-f" transform="translate(-297 -5714)">
    <g id="Group_9723" data-name="Group 9723" transform="translate(0 2)">
      <circle id="Ellipse_18" data-name="Ellipse 18" cx="53.5" cy="53.5" r="53.5" transform="translate(297 5712)" fill="#f4f7fa"/>
    </g>
    <g id="Group_9735" data-name="Group 9735" transform="translate(127.764 3307.609)">
      <g id="Group_9700" data-name="Group 9700" transform="translate(192.236 2436.39)">
        <g id="bed" transform="translate(0 0)">
          <g id="Group_29" data-name="Group 29" transform="translate(0 0)">
            <path id="Path_39" data-name="Path 39" d="M58.231,90.022V69.064A5.069,5.069,0,0,0,53.168,64H7.6a5.069,5.069,0,0,0-5.064,5.064V90.022A5.047,5.047,0,0,0,0,94.382v5.064a5.069,5.069,0,0,0,5.064,5.064v3.8a1.265,1.265,0,0,0,1.266,1.266H8.861a1.266,1.266,0,0,0,1.132-.7l2.182-4.364H48.588l2.182,4.364a1.266,1.266,0,0,0,1.132.7h2.532a1.265,1.265,0,0,0,1.266-1.266v-3.8a5.069,5.069,0,0,0,5.064-5.064V94.382A5.047,5.047,0,0,0,58.231,90.022ZM5.064,69.064A2.534,2.534,0,0,1,7.6,66.532H53.168A2.534,2.534,0,0,1,55.7,69.064V89.318H52.472c.153-.184.324-.338.466-.54a1.26,1.26,0,0,0,0-1.451,6.6,6.6,0,0,0-5.316-3.072H38.459a6.6,6.6,0,0,0-5.316,3.072,1.26,1.26,0,0,0,0,1.451c.141.2.312.356.466.54H27.154c.153-.184.324-.338.466-.54a1.26,1.26,0,0,0,0-1.451A6.6,6.6,0,0,0,22.3,84.255H13.141a6.6,6.6,0,0,0-5.316,3.072,1.26,1.26,0,0,0,0,1.451c.141.2.312.356.466.54H5.064ZM50.272,88.052a3.7,3.7,0,0,1-2.65,1.266H38.459a3.7,3.7,0,0,1-2.65-1.266,3.7,3.7,0,0,1,2.65-1.266h9.163A3.7,3.7,0,0,1,50.272,88.052Zm-25.318,0a3.7,3.7,0,0,1-2.65,1.266H13.141a3.7,3.7,0,0,1-2.65-1.266,3.7,3.7,0,0,1,2.65-1.266H22.3A3.7,3.7,0,0,1,24.955,88.052ZM8.08,107.041H7.6v-2.532h1.75Zm45.088,0h-.485l-1.265-2.532h1.75Zm5.064-7.6a2.534,2.534,0,0,1-2.532,2.532H5.064a2.534,2.534,0,0,1-2.532-2.532V94.382A2.534,2.534,0,0,1,5.064,91.85H55.7a2.534,2.534,0,0,1,2.532,2.532Z" transform="translate(0 -64)" fill="#2289ff"/>
          </g>
        </g>
      </g>
    </g>
  </g>
</svg>
