<svg xmlns="http://www.w3.org/2000/svg" width="15.16" height="11.37" viewBox="0 0 15.16 11.37">
  <g id="bed" transform="translate(-8.34 -10.31)">
    <g id="bed-2" data-name="bed" transform="translate(8.34 10.31)">
      <g id="Group_29" data-name="Group 29" transform="translate(0 0)">
        <path id="Path_39" data-name="Path 39" d="M14.528,70.492V65.263A1.265,1.265,0,0,0,13.265,64H1.895A1.265,1.265,0,0,0,.632,65.263v5.229A1.259,1.259,0,0,0,0,71.58v1.263a1.265,1.265,0,0,0,1.263,1.263v.947a.316.316,0,0,0,.316.316h.632a.316.316,0,0,0,.283-.175l.544-1.089h9.084l.544,1.089a.316.316,0,0,0,.283.175h.632a.316.316,0,0,0,.316-.316v-.947a1.265,1.265,0,0,0,1.263-1.263V71.58A1.259,1.259,0,0,0,14.528,70.492ZM1.263,65.263a.632.632,0,0,1,.632-.632h11.37a.632.632,0,0,1,.632.632v5.053h-.805c.038-.046.081-.084.116-.135a.314.314,0,0,0,0-.362,1.647,1.647,0,0,0-1.326-.766H9.6a1.647,1.647,0,0,0-1.326.766.314.314,0,0,0,0,.362c.035.05.078.089.116.135H6.775c.038-.046.081-.084.116-.135a.314.314,0,0,0,0-.362,1.647,1.647,0,0,0-1.326-.766H3.279a1.647,1.647,0,0,0-1.326.766.314.314,0,0,0,0,.362c.035.05.078.089.116.135H1.263ZM12.543,70a.922.922,0,0,1-.661.316H9.6A.922.922,0,0,1,8.934,70a.922.922,0,0,1,.661-.316h2.286A.922.922,0,0,1,12.543,70ZM6.226,70a.922.922,0,0,1-.661.316H3.279A.922.922,0,0,1,2.617,70a.922.922,0,0,1,.661-.316H5.565A.922.922,0,0,1,6.226,70Zm-4.21,4.737H1.895v-.632h.437Zm11.249,0h-.121l-.316-.632h.437Zm1.263-1.895a.632.632,0,0,1-.632.632H1.263a.632.632,0,0,1-.632-.632V71.58a.632.632,0,0,1,.632-.632H13.9a.632.632,0,0,1,.632.632Z" transform="translate(0 -64)"/>
      </g>
    </g>
  </g>
</svg>
