<svg xmlns="http://www.w3.org/2000/svg" width="107" height="107" viewBox="0 0 107 107">
  <g id="car" transform="translate(-297 -5712)">
    <circle id="Ellipse_18" data-name="Ellipse 18" cx="53.5" cy="53.5" r="53.5" transform="translate(297 5712)" fill="#f4f7fa"/>
    <path id="car-2" data-name="car" d="M10.1,3.024,6.527,17.912H0v4.3H2.238V50.009H8.665v-4.55H47.8v4.55h6.423V22.214h2.243v-4.3H49.94L46.366,3.022H10.1Zm1.9,2.9H44.46l2.88,11.994H9.126l2.88-11.994h0ZM4.1,25.857l8.961,3.31v4.3L4.1,30.157Zm48.267,0v4.3l-8.958,3.31v-4.3l8.958-3.306ZM19.567,37.1H36.893v4.3H19.567Z" transform="translate(322 5738.977)" fill="#2289ff"/>
  </g>
</svg>
