<svg xmlns="http://www.w3.org/2000/svg" width="44" height="44" viewBox="0 0 44 44">
  <g id="fb" transform="translate(-100 -7324)">
    <circle id="Ellipse_19" data-name="Ellipse 19" cx="22" cy="22" r="22" transform="translate(100 7324)" fill="#fff"/>
    <path id="_" data-name="" d="M9,6.491l-.355,3.52h-2.7V20H1.906V10.011H0V6.491H1.906V4.206A5.079,5.079,0,0,1,2.217,2.4,3.5,3.5,0,0,1,3.436.731,4.162,4.162,0,0,1,5.963,0L8.956.023V3.451H6.783a.842.842,0,0,0-.554.183.978.978,0,0,0-.288.777v2.08Z" transform="translate(118 7336)" fill="#186aa5"/>
  </g>
</svg>
