<svg xmlns="http://www.w3.org/2000/svg" width="13.5" height="13.5" viewBox="0 0 13.5 13.5">
  <g id="ft" transform="translate(-571 -2351)">
    <g id="box-arrow-up-right" transform="translate(575.125 2355.125)">
      <path id="Path_2928" data-name="Path 2928" d="M3.375,8.351A.649.649,0,0,0,4.024,9H7.485a.649.649,0,0,0,.649-.649V6.62a.216.216,0,1,0-.433,0V8.351a.216.216,0,0,1-.216.216H4.024a.216.216,0,0,1-.216-.216V4.889a.216.216,0,0,1,.216-.216H5.755a.216.216,0,1,0,0-.433H4.024a.649.649,0,0,0-.649.649ZM6.4,3.591a.216.216,0,0,1,.216-.216H8.783A.216.216,0,0,1,9,3.591V5.755a.216.216,0,1,1-.433,0V3.808H6.62A.216.216,0,0,1,6.4,3.591Z" transform="translate(-3.375 -3.375)" fill-rule="evenodd"/>
      <path id="Path_2929" data-name="Path 2929" d="M16.2,3.437a.216.216,0,0,1,0,.306L12.743,7.2a.217.217,0,0,1-.306-.306L15.9,3.437a.216.216,0,0,1,.306,0Z" transform="translate(-10.643 -3.373)" fill-rule="evenodd"/>
    </g>
    <g id="fullscreen" transform="translate(571 2351)">
      <path id="Path_2932" data-name="Path 2932" d="M1.266.844a.422.422,0,0,0-.422.422V4.641a.422.422,0,0,1-.844,0V1.266A1.266,1.266,0,0,1,1.266,0H4.641a.422.422,0,1,1,0,.844ZM8.438.422A.422.422,0,0,1,8.859,0h3.375A1.266,1.266,0,0,1,13.5,1.266V4.641a.422.422,0,1,1-.844,0V1.266a.422.422,0,0,0-.422-.422H8.859A.422.422,0,0,1,8.438.422ZM.422,8.438a.422.422,0,0,1,.422.422v3.375a.422.422,0,0,0,.422.422H4.641a.422.422,0,1,1,0,.844H1.266A1.266,1.266,0,0,1,0,12.234V8.859a.422.422,0,0,1,.422-.422Zm12.656,0a.422.422,0,0,1,.422.422v3.375A1.266,1.266,0,0,1,12.234,13.5H8.859a.422.422,0,1,1,0-.844h3.375a.422.422,0,0,0,.422-.422V8.859A.422.422,0,0,1,13.078,8.438Z" fill-rule="evenodd"/>
    </g>
  </g>
</svg>
