<svg xmlns="http://www.w3.org/2000/svg" width="44" height="44" viewBox="0 0 44 44">
  <g id="ig" transform="translate(-210 -7324)">
    <circle id="Ellipse_21" data-name="Ellipse 21" cx="22" cy="22" r="22" transform="translate(210 7324)" fill="#fff"/>
    <path id="_" data-name="" d="M3.834,20a3.607,3.607,0,0,1-1.861-.5A4.04,4.04,0,0,1,.539,18.079,3.714,3.714,0,0,1,0,16.136V7.177H5.8a5.033,5.033,0,0,0-.643,4.617A4.922,4.922,0,0,0,7.2,14.353a4.9,4.9,0,0,0,2.075.789,5.093,5.093,0,0,0,.7.047,5.261,5.261,0,0,0,1.49-.219A5.043,5.043,0,0,0,13.395,13.9a4.88,4.88,0,0,0,1.284-1.829,5.159,5.159,0,0,0,.39-2.377,5.541,5.541,0,0,0-.895-2.537h5.8v8.982a3.767,3.767,0,0,1-.527,1.943A3.891,3.891,0,0,1,16.078,20H3.834ZM10,14.011A4.027,4.027,0,0,1,8,13.5,3.9,3.9,0,0,1,6.559,8.149,3.967,3.967,0,0,1,8,6.709a3.879,3.879,0,0,1,1.984-.537,3.817,3.817,0,0,1,1.973.537,4.005,4.005,0,0,1,1.434,1.44A3.892,3.892,0,0,1,11.961,13.5,3.917,3.917,0,0,1,10,14.011ZM9.988,7.2a2.856,2.856,0,0,0-1.456.388A2.919,2.919,0,0,0,7.477,8.64a2.9,2.9,0,0,0,0,2.9,3.014,3.014,0,0,0,1.055,1.063,2.789,2.789,0,0,0,1.456.4,2.85,2.85,0,0,0,1.457-.389A2.914,2.914,0,0,0,12.5,11.565a2.919,2.919,0,0,0,0-2.914,2.9,2.9,0,0,0-1.055-1.063A2.858,2.858,0,0,0,9.988,7.2Zm9.991-.662H13.83a.4.4,0,0,1-.321-.137,5.292,5.292,0,0,0-2.271-1.235,4.98,4.98,0,0,0-2.523.012A5.436,5.436,0,0,0,6.445,6.422a.332.332,0,0,1-.23.114H.138L.022,6.514V5.646c0,.033,0,.044-.007.047S0,5.283,0,4.595A10.184,10.184,0,0,1,.046,3.542,3.718,3.718,0,0,1,1.582.777L1.674.754V4.937h.8V.617A.613.613,0,0,1,2.523.309.866.866,0,0,1,2.844.16L3.05.114V4.937h.826V.023H4.4V4.937h.825V0H16.078a3.753,3.753,0,0,1,1.915.514A4.071,4.071,0,0,1,19.415,1.9a3.658,3.658,0,0,1,.563,1.874c.015.367.022.816.022,1.372l-.007.477c-.008.547-.012.816-.014.917ZM16.485,1.657c-.341,0-.692,0-1.073.012a.581.581,0,0,0-.458.183.7.7,0,0,0-.161.48v2.1a.635.635,0,0,0,.172.468.611.611,0,0,0,.447.172h2.111a.594.594,0,0,0,.642-.64V2.309a.634.634,0,0,0-.172-.469.607.607,0,0,0-.447-.171C17.173,1.661,16.826,1.657,16.485,1.657Z" transform="translate(222 7336)" fill="#186aa5"/>
  </g>
</svg>
