<svg xmlns="http://www.w3.org/2000/svg" width="107" height="107" viewBox="0 0 107 107">
  <g id="kid" transform="translate(-297 -5712)">
    <circle id="Ellipse_18" data-name="Ellipse 18" cx="53.5" cy="53.5" r="53.5" transform="translate(297 5712)" fill="#f4f7fa"/>
    <g id="XMLID_313_" transform="translate(310.131 5646.752)">
      <path id="XMLID_319_" d="M6.335,182.867a5.117,5.117,0,1,0-6.187-3.754A5.116,5.116,0,0,0,6.335,182.867Z" transform="translate(0 -74.005)" fill="#2289ff"/>
      <path id="XMLID_318_" d="M367.663,94.4a5.116,5.116,0,1,0-6.186-3.753A5.114,5.114,0,0,0,367.663,94.4Z" transform="translate(-302.266 0)" fill="#2289ff"/>
      <path id="XMLID_314_" d="M86.292,167.007a2.053,2.053,0,0,0-2.474-1.5l-3.181.78a2.757,2.757,0,0,0-.016-.918c-.16-.666-3-12.585-3.239-13.226a4.036,4.036,0,0,0-4.8-2.586,4.08,4.08,0,0,0-3.069,4.473l-6.368,6.108a2.73,2.73,0,0,0-.08,3.859,2.6,2.6,0,0,0,.592.405,1.827,1.827,0,0,0-1.151,2.139l.966,3.948-13.741,3.363a4.744,4.744,0,0,0-8.059,1.974l-13.049,3.2-.968-3.95a1.817,1.817,0,0,0-1.972-1.367,2.677,2.677,0,0,0,.3-.626,2.731,2.731,0,0,0-1.854-3.386l-8.472-2.476A4.071,4.071,0,0,0,7.8,169.172c.088.653,3.238,13.231,3.238,13.231a2.712,2.712,0,0,0,.409.82L8.271,184a2.047,2.047,0,0,0,.973,3.976L19.786,185.4l-.514,3.256a2.729,2.729,0,0,0,5.392.853l.871-5.516,16.829-4.12a4.807,4.807,0,0,0,1.335,1.263l-4.08,6.448a2.861,2.861,0,0,0,2.417,4.391H50.46a2.861,2.861,0,0,0,2.417-4.391l-4.08-6.448a4.755,4.755,0,0,0,2.16-3.367L68.5,173.47l3.319,4.488a2.73,2.73,0,1,0,4.389-3.246l-1.96-2.649,10.541-2.581A2.047,2.047,0,0,0,86.292,167.007Zm-15.323-6.815,1.042,4.252-4.639,1.137a2.715,2.715,0,0,0-1.154.606l-.129-.527a1.8,1.8,0,0,0-.585-.914,2.666,2.666,0,0,0,1.417-.67ZM23.363,175.041a2.707,2.707,0,0,0,.782-.127,1.782,1.782,0,0,0-.081,1.035l.129.526a2.726,2.726,0,0,0-1.3,0l-4.64,1.135-1.041-4.252C17.846,173.542,22.753,175.041,23.363,175.041Z" transform="translate(-5.613 -54.484)" fill="#2289ff"/>
    </g>
  </g>
</svg>
