<svg xmlns="http://www.w3.org/2000/svg" width="107" height="107" viewBox="0 0 107 107">
  <g id="medical" transform="translate(-297 -5712)">
    <circle id="Ellipse_18" data-name="Ellipse 18" cx="53.5" cy="53.5" r="53.5" transform="translate(297 5712)" fill="#f4f7fa"/>
    <g id="stethoscope" transform="translate(319.134 5736)">
      <path id="Path_2951" data-name="Path 2951" d="M10.577,58.567A6.711,6.711,0,1,1,13.14,45.654l2.182-2.182a.858.858,0,1,1,1.213,1.213l-1.86,1.861a6.766,6.766,0,0,1,1.213,1.213l1.86-1.86c2.649-2.649,5.323-3.517,8.413-2.731,2.793.711,5.679,2.688,9.162,5.2,4.075,2.938,8.288,5.976,12.791,5.976a8.375,8.375,0,0,0,5.922-14.3l-.822-.822A7.368,7.368,0,0,1,52,40.438l.822.822a6.659,6.659,0,0,1-4.709,11.368c-3.949,0-7.934-2.873-11.787-5.652-3.083-2.223-6.27-4.522-9.514-5.407a9.32,9.32,0,0,0-7.8,1.106.858.858,0,1,1-.914-1.452,11.093,11.093,0,0,1,9.167-1.309c3.544.967,6.859,3.358,10.066,5.67,3.633,2.62,7.389,5.328,10.784,5.328a4.944,4.944,0,0,0,3.5-8.44L50.5,41.358a8.476,8.476,0,0,1-5.774.389C22,35.583,15.563,29.389,13.748,26.245c-2.138-3.7-.354-8.3,1.6-10.41a5.082,5.082,0,0,1,1.162-2.243c.348-.348,1.652-1.312,3.839.874s1.222,3.491.874,3.839a5.054,5.054,0,0,1-2.212,1.154,5.206,5.206,0,0,0-.925,1.927,3.126,3.126,0,0,0,.121,2.286.858.858,0,0,1-1.486.858c-1.014-1.757-.352-4.275.684-5.786l-1.226-1.226a8.965,8.965,0,0,0-1.465,3.214,6.409,6.409,0,0,0,.522,4.656c1.088,1.884,4.929,6.205,18.273,11.058a14.48,14.48,0,0,0,3.931-.461,96.071,96.071,0,0,1-9.626-3.725,39.74,39.74,0,0,1-8.739-5.167.858.858,0,1,1,1.1-1.319c2.3,1.915,7.8,5.457,19.91,9.26a16.1,16.1,0,0,0,7.73-7.73c-.582-1.856-1.177-3.619-1.782-5.277a.858.858,0,0,1,1.612-.588q.566,1.553,1.12,3.223a14.445,14.445,0,0,0,.463-3.858C46.457,13.191,42.6,5.017,38.164,2.456a6.409,6.409,0,0,0-4.656-.522A8.964,8.964,0,0,0,30.294,3.4L31.52,4.626c1.511-1.035,4.029-1.7,5.786-.684,1.008.582,4.638,3.32,9.038,14.13a.858.858,0,1,1-1.589.647c-4.3-10.57-7.675-12.927-8.307-13.292a3.125,3.125,0,0,0-2.286-.121,5.208,5.208,0,0,0-1.927.925,5.054,5.054,0,0,1-1.154,2.212c-.348.348-1.652,1.312-3.839-.874a4.922,4.922,0,0,1-1.276-1.887,1.866,1.866,0,0,1,.4-1.952,5.082,5.082,0,0,1,2.243-1.161C30.723.616,35.319-1.167,39.022.97c3.144,1.815,9.338,8.253,15.5,30.975a8.474,8.474,0,0,1-.389,5.773l1.115,1.115a10.09,10.09,0,0,1-7.135,17.225c-5.057,0-9.5-3.2-13.794-6.3-3.218-2.321-6.086-4.294-8.582-4.929-2.479-.631-4.569.073-6.777,2.281L16.78,49.293a6.711,6.711,0,0,1-6.2,9.274Zm0-11.706a5,5,0,1,0,5,5A5,5,0,0,0,10.577,46.861Zm26.774-9.093c2.353.768,4.951,1.545,7.82,2.323a6.049,6.049,0,0,0,7.7-7.7c-.546-2.013-1.335-4.759-2.331-7.786a16.9,16.9,0,0,1-.9,2.8q.806,2.609,1.573,5.437a4.343,4.343,0,0,1-5.592,5.592q-2.832-.768-5.438-1.573a16.907,16.907,0,0,1-2.832.906ZM42.4,35.74q1.751.518,3.671,1.04a2.647,2.647,0,0,0,3.487-3.487q-.511-1.882-1.04-3.671A17.864,17.864,0,0,1,42.4,35.74ZM17.083,16l1.732,1.732a3.115,3.115,0,0,0,1.192-.637.056.056,0,0,0,.009-.011c.026-.059-.023-.542-.883-1.4s-1.343-.909-1.4-.883,0,0-.011.009A3.112,3.112,0,0,0,17.083,16ZM28.774,4.306a3.114,3.114,0,0,0-1.192.637.06.06,0,0,0-.009.011c-.026.059.024.542.883,1.4s1.343.91,1.4.883,0,0,.011-.009a3.127,3.127,0,0,0,.638-1.192Z" transform="translate(0 0)" fill="#2289ff"/>
    </g>
  </g>
</svg>
