<svg xmlns="http://www.w3.org/2000/svg" width="107" height="107" viewBox="0 0 107 107">
  <g id="poll" transform="translate(-297 -5712)">
    <circle id="Ellipse_18" data-name="Ellipse 18" cx="53.5" cy="53.5" r="53.5" transform="translate(297 5712)" fill="#f4f7fa"/>
    <g id="swimming-pool" transform="translate(320.407 5736.025)">
      <path id="Path_2940" data-name="Path 2940" d="M47.51,40.215a10.384,10.384,0,0,1-4.835-1.063,8.919,8.919,0,0,0-4.193-.928,8.909,8.909,0,0,0-4.191.928,10.372,10.372,0,0,1-4.832,1.063,10.377,10.377,0,0,1-4.834-1.063,8.91,8.91,0,0,0-4.192-.928,8.909,8.909,0,0,0-4.187.932,10.372,10.372,0,0,1-4.836,1.059,10.364,10.364,0,0,1-4.831-1.059,8.9,8.9,0,0,0-4.189-.932.8.8,0,0,1,0-1.593A10.367,10.367,0,0,1,7.221,37.7a8.9,8.9,0,0,0,4.188.924,8.909,8.909,0,0,0,4.19-.928,10.373,10.373,0,0,1,4.833-1.063,10.377,10.377,0,0,1,4.834,1.063,8.91,8.91,0,0,0,4.192.928,8.909,8.909,0,0,0,4.19-.928,10.373,10.373,0,0,1,4.833-1.063A10.384,10.384,0,0,1,43.32,37.7a9.941,9.941,0,0,0,8.387,0,10.384,10.384,0,0,1,4.832-1.067.8.8,0,0,1,0,1.593,8.919,8.919,0,0,0-4.193.928,10.385,10.385,0,0,1-4.836,1.063Z" fill="#2289ff"/>
      <path id="Path_2941" data-name="Path 2941" d="M47.51,46.585a10.384,10.384,0,0,1-4.835-1.063,8.919,8.919,0,0,0-4.193-.928,8.909,8.909,0,0,0-4.191.928,10.372,10.372,0,0,1-4.832,1.063,10.377,10.377,0,0,1-4.834-1.063,8.91,8.91,0,0,0-4.192-.928,8.909,8.909,0,0,0-4.187.932,10.372,10.372,0,0,1-4.836,1.059,10.364,10.364,0,0,1-4.831-1.059,8.9,8.9,0,0,0-4.189-.932.8.8,0,0,1,0-1.593,10.367,10.367,0,0,1,4.832,1.067,8.9,8.9,0,0,0,4.188.924,8.909,8.909,0,0,0,4.19-.928A10.373,10.373,0,0,1,20.432,43a10.377,10.377,0,0,1,4.834,1.063,8.91,8.91,0,0,0,4.192.928,8.909,8.909,0,0,0,4.19-.928A10.373,10.373,0,0,1,38.481,43a10.384,10.384,0,0,1,4.839,1.067,9.941,9.941,0,0,0,8.387,0A10.384,10.384,0,0,1,56.539,43a.8.8,0,0,1,0,1.593,8.919,8.919,0,0,0-4.193.928,10.385,10.385,0,0,1-4.836,1.063Z" fill="#2289ff"/>
      <path id="Path_2942" data-name="Path 2942" d="M47.51,52.956a10.384,10.384,0,0,1-4.835-1.063,8.919,8.919,0,0,0-4.193-.928,8.909,8.909,0,0,0-4.191.928,10.372,10.372,0,0,1-4.832,1.063,10.377,10.377,0,0,1-4.834-1.063,8.91,8.91,0,0,0-4.192-.928,8.909,8.909,0,0,0-4.187.932,10.372,10.372,0,0,1-4.836,1.059A10.364,10.364,0,0,1,6.578,51.9a8.9,8.9,0,0,0-4.189-.932.8.8,0,0,1,0-1.593,10.367,10.367,0,0,1,4.832,1.067,8.9,8.9,0,0,0,4.188.924,8.909,8.909,0,0,0,4.19-.928,10.373,10.373,0,0,1,4.833-1.063,10.377,10.377,0,0,1,4.834,1.063,8.91,8.91,0,0,0,4.192.928,8.909,8.909,0,0,0,4.19-.928,10.373,10.373,0,0,1,4.833-1.063,10.384,10.384,0,0,1,4.839,1.067,9.941,9.941,0,0,0,8.387,0,10.384,10.384,0,0,1,4.832-1.067.8.8,0,0,1,0,1.593,8.919,8.919,0,0,0-4.193.928,10.385,10.385,0,0,1-4.836,1.063Z" fill="#2289ff"/>
      <path id="Path_2943" data-name="Path 2943" d="M29.464,40.215a.8.8,0,0,1-.8-.8V11.149a5.176,5.176,0,0,1,10.352,0,.8.8,0,0,1-1.593,0,3.583,3.583,0,1,0-7.167,0v28.27A.8.8,0,0,1,29.464,40.215Z" fill="#2289ff"/>
      <path id="Path_2944" data-name="Path 2944" d="M47.381,40.215a.8.8,0,0,1-.8-.8V11.149a5.176,5.176,0,1,1,10.352,0,.8.8,0,0,1-1.593,0,3.583,3.583,0,1,0-7.167,0v28.27A.8.8,0,0,1,47.381,40.215Z" fill="#2289ff"/>
      <path id="Path_2945" data-name="Path 2945" d="M47.381,19.315H29.464a.8.8,0,0,1,0-1.593H47.381a.8.8,0,1,1,0,1.593Z" fill="#2289ff"/>
      <path id="Path_2946" data-name="Path 2946" d="M47.381,25.686H29.464a.8.8,0,1,1,0-1.593H47.381a.8.8,0,1,1,0,1.593Z" fill="#2289ff"/>
      <path id="Path_2947" data-name="Path 2947" d="M47.381,32.056H29.464a.8.8,0,1,1,0-1.593H47.381a.8.8,0,1,1,0,1.593Z" fill="#2289ff"/>
    </g>
  </g>
</svg>
