<svg xmlns="http://www.w3.org/2000/svg" width="107" height="107" viewBox="0 0 107 107">
  <g id="security" transform="translate(-1064 -5518)">
    <g id="Group_9723" data-name="Group 9723" transform="translate(767 -194)">
      <circle id="Ellipse_18" data-name="Ellipse 18" cx="53.5" cy="53.5" r="53.5" transform="translate(297 5712)" fill="#f4f7fa"/>
    </g>
    <g id="surface1" transform="translate(1090.999 5534.469)">
      <path id="Path_2948" data-name="Path 2948" d="M51.941,16.568l0-.047c-.027-.587-.044-1.207-.055-1.9a6.472,6.472,0,0,0-6.094-6.34C38.769,7.89,33.337,5.6,28.7,1.078l-.04-.038a3.908,3.908,0,0,0-5.311,0l-.04.038C18.665,5.6,13.234,7.89,6.213,8.283a6.472,6.472,0,0,0-6.094,6.34c-.01.686-.028,1.306-.055,1.9l0,.11C-.075,23.79-.245,32.7,2.736,40.788a30.751,30.751,0,0,0,7.377,11.491,38.593,38.593,0,0,0,14.437,8.539,4.471,4.471,0,0,0,.592.161,4.37,4.37,0,0,0,1.718,0,4.486,4.486,0,0,0,.594-.162,38.618,38.618,0,0,0,14.422-8.544A30.794,30.794,0,0,0,49.254,40.78C52.246,32.668,52.077,23.741,51.941,16.568ZM45.892,39.54c-3.144,8.524-9.562,14.378-19.62,17.9a.9.9,0,0,1-.114.031.8.8,0,0,1-.315,0,.892.892,0,0,1-.113-.03C15.662,53.924,9.24,48.074,6.1,39.549,3.351,32.094,3.506,23.915,3.644,16.7v-.04c.028-.62.047-1.27.057-1.983A2.877,2.877,0,0,1,6.413,11.86,31.439,31.439,0,0,0,17.084,9.513a27.918,27.918,0,0,0,8.7-5.842.33.33,0,0,1,.443,0,27.928,27.928,0,0,0,8.7,5.842A31.44,31.44,0,0,0,45.59,11.86,2.876,2.876,0,0,1,48.3,14.676c.011.717.029,1.367.057,1.983C48.5,23.883,48.647,32.069,45.892,39.54Zm0,0" transform="translate(0 0)" fill="#2289ff"/>
      <path id="Path_2949" data-name="Path 2949" d="M105.617,128.41a15.219,15.219,0,1,0,15.219,15.219A15.236,15.236,0,0,0,105.617,128.41Zm0,26.854a11.635,11.635,0,1,1,11.635-11.635A11.648,11.648,0,0,1,105.617,155.264Zm0,0" transform="translate(-79.616 -113.095)" fill="#2289ff"/>
      <path id="Path_2950" data-name="Path 2950" d="M165.718,212.516l-7.069,7.069-1.919-1.919A1.792,1.792,0,1,0,154.2,220.2l3.186,3.186a1.792,1.792,0,0,0,2.534,0l8.336-8.336a1.792,1.792,0,0,0-2.534-2.534Zm0,0" transform="translate(-135.344 -186.708)" fill="#2289ff"/>
    </g>
  </g>
</svg>
