<svg xmlns="http://www.w3.org/2000/svg" width="44" height="44" viewBox="0 0 44 44">
  <g id="tele" transform="translate(-265 -7324)">
    <circle id="Ellipse_22" data-name="Ellipse 22" cx="22" cy="22" r="22" transform="translate(265 7324)" fill="#fff"/>
    <g id="Social" transform="translate(134 7336)">
      <path id="_" data-name="" d="M10,20a9.934,9.934,0,0,1-8.64-4.936A10.053,10.053,0,0,1,0,10.012,9.754,9.754,0,0,1,1.36,4.96,9.928,9.928,0,0,1,4.948,1.372,10.137,10.137,0,0,1,10,0V.023A9.937,9.937,0,0,1,18.64,4.96,9.745,9.745,0,0,1,20,10.012a10.043,10.043,0,0,1-1.36,5.052A9.934,9.934,0,0,1,10,20ZM12.845,7.269c.054,0,.081.031.081.091l-.138.205-4.754,4.3v.046l1.554,1.234,2.56,1.943a.822.822,0,0,0,.341.082.612.612,0,0,0,.208-.036.627.627,0,0,0,.3-.206,1.5,1.5,0,0,1,.092-.16L14.869,5.76c0-.182-.069-.29-.206-.32a.534.534,0,0,0-.142-.018,1.035,1.035,0,0,0-.269.041l-.206.068L3.9,9.509a.912.912,0,0,0-.239.172.26.26,0,0,0-.08.239.456.456,0,0,0,.229.32l.205.114,2.515.845L12.583,7.36l.16-.068A.3.3,0,0,1,12.845,7.269Z" transform="translate(143)" fill="#186aa5"/>
    </g>
  </g>
</svg>
