<svg xmlns="http://www.w3.org/2000/svg" width="44" height="44" viewBox="0 0 44 44">
  <g id="twitter" transform="translate(-382 -7315.701)">
    <circle id="Ellipse_20" data-name="Ellipse 20" cx="22" cy="22" r="22" transform="translate(382 7315.701)" fill="#fdfdfd"/>
    <path id="_" data-name="" d="M25,2.363a10.678,10.678,0,0,1-2.568,2.644v.647a14.435,14.435,0,0,1-.942,5.063,15.047,15.047,0,0,1-2.8,4.613,13.854,13.854,0,0,1-4.566,3.376A15.084,15.084,0,0,1,7.877,20a14.811,14.811,0,0,1-4.167-.591A14.286,14.286,0,0,1,0,17.75q.6.056,1.227.056a10.317,10.317,0,0,0,3.4-.563,10.691,10.691,0,0,0,2.968-1.575,5.175,5.175,0,0,1-2.968-1.027,4.876,4.876,0,0,1-1.8-2.489,5.172,5.172,0,0,0,.942.084,5.365,5.365,0,0,0,1.341-.169A5.1,5.1,0,0,1,1.555,9.353,5.218,5.218,0,0,1,1,7.117V7.032a4.87,4.87,0,0,0,2.34.647A5.127,5.127,0,0,1,1.67,5.865,4.895,4.895,0,0,1,1.056,3.46,4.965,4.965,0,0,1,1.741.928,14.576,14.576,0,0,0,6.393,4.641,14.633,14.633,0,0,0,12.3,6.217a5.785,5.785,0,0,1-.114-1.153,4.867,4.867,0,0,1,.685-2.532A5.142,5.142,0,0,1,14.74.689,4.993,4.993,0,0,1,17.295,0a5.1,5.1,0,0,1,2.055.422A5.044,5.044,0,0,1,21.033,1.6,10.057,10.057,0,0,0,24.287.366a4.856,4.856,0,0,1-.87,1.617,5.253,5.253,0,0,1-1.384,1.2A10.531,10.531,0,0,0,25,2.363Z" transform="translate(392.5 7327.701)" fill="#186aa5"/>
  </g>
</svg>
